/* XPM */
static char *coin1695809224[] = {
/* columns rows colors chars-per-pixel */
"64 64 110 2 ",
"   c #000000",
".  c #100F10",
"X  c #141313",
"o  c #1C1C1C",
"O  c #242424",
"+  c #2C2B2B",
"@  c #343434",
"#  c #383738",
"$  c #3B3B3B",
"%  c #450000",
"&  c #4C0000",
"*  c #520000",
"=  c #5C0000",
"-  c #640000",
";  c #6A0000",
":  c #6C020C",
">  c #6D0D13",
",  c #6D1116",
"<  c #6F151A",
"1  c #6F1A1E",
"2  c #71191D",
"3  c #6F1D20",
"4  c #711D21",
"5  c #712225",
"6  c #742629",
"7  c #752A2D",
"8  c #772E31",
"9  c #773133",
"0  c #793235",
"q  c #7A3639",
"w  c #7C3A3C",
"e  c #7E3F41",
"r  c #424242",
"t  c #4C4C4C",
"y  c #555555",
"u  c gray36",
"i  c #7E4244",
"p  c #605F5F",
"a  c #656565",
"s  c #6B6B6B",
"d  c #747474",
"f  c #7B7B7B",
"g  c #814345",
"h  c #834749",
"j  c #834B4C",
"k  c #854F50",
"l  c #865354",
"z  c #885455",
"x  c #8A5758",
"c  c #8B5B5C",
"v  c #8F5F60",
"b  c #8E6162",
"n  c #916364",
"m  c #926768",
"M  c #956B6C",
"N  c #957071",
"B  c #9A7374",
"V  c #9D7778",
"C  c #9E7A7B",
"Z  c #848383",
"A  c #8C8C8C",
"S  c #939393",
"D  c #9C9C9C",
"F  c #A58485",
"G  c #A98788",
"H  c #A68888",
"J  c #AA8D8D",
"K  c #AB8F90",
"L  c #AE9292",
"P  c #B19696",
"I  c #B19798",
"U  c #B39B9C",
"Y  c #B69FA0",
"T  c #A4A4A4",
"R  c #ABABAB",
"E  c #B7A0A0",
"W  c #BAA4A4",
"Q  c #BDA9AA",
"!  c #B2B2B2",
"~  c #BBBBBB",
"^  c #C2AEAE",
"/  c #C3B2B3",
"(  c #C8B6B6",
")  c #C7BABA",
"_  c #CBBCBD",
"`  c #C2C2C2",
"'  c #CDC2C2",
"]  c #CCCCCC",
"[  c #D2C5C5",
"{  c #D4C7C8",
"}  c #D5CCCC",
"|  c #D8CECE",
" . c #D4D4D4",
".. c #DCD4D4",
"X. c #DCDBDB",
"o. c #E1D7D7",
"O. c #E2DDDD",
"+. c #DFE0E0",
"@. c #E6E6E6",
"#. c #E9E6E6",
"$. c #ECECEC",
"%. c #F0EEEE",
"&. c #EEF0EF",
"*. c #F1EFF0",
"=. c #EFF0F0",
"-. c #F3F3F3",
";. c #F8F7F7",
":. c #F5F8F7",
">. c #F7F8F8",
",. c #FBFBFB",
/* pixels */
",.@.,.@.:.@.;.$.-.$.*.=.=.*.$.-.#.>.@.-.@.,.=.,. .] D Z a r + o o o + t s S ! ] $.-.,.#.-.@.,.@.>.@.>.@.:.@.:.$.-.$.*.=.=.-.$.-.",
"@.;.@.-.$.-.#.-.$.-.$.=.*.$.-.$.:.#.>.:.,.] T s O                               t Z ` -.-.,.#.-.#.>.#.-.@.:.$.-.$.*.$.*.*.$.-.#.",
",.#.,.@.:.$.-.$.-.$.*.=.=.-.$.*.#.,.@.~ a         o t f A R T ! R R U S d t o         t D X.,.$.:.#.>.#.:.$.:.#.-.$.-.=.=.*.$.:.",
"@.>.#.-.@.-.$.-.$.=.=.=.=.$.*.-.-.R r       O Z `  .-.$.,.-.,.-.,.-.>.:.-.$.X.` Z t       + S #.=.:.#.>.#.-.$.-.$.*.$.=.=.$.-.$.",
">.#.:.#.:.$.-.$.-.$.-.*.$.-.-.` t       + A  .,.-.,.#.:.#.-.@.-.#.$.$.*.-.$.:.-.,.@.] d o     @ R =.,.@.:.#.-.$.-.$.-.$.$.-.$.-.",
"#.:.@.:.#.-.$.-.#.-.$.$.,.X.f     y S ~ #.*.,.@.-.@.:.#.:.$.-.$.:.$.-.$.=.=.$.-.#.-.:.,.] S       p X.,.@.:.$.-.$.-.$.-.*.$.-.$.",
":.#.:.#.:.$.-.$.:.$.$.,.~ .   S  .-.:.,.$.:.@.-.#.:.$.-.#.-.$.-.$.-.$.-.-.$.-.$.-.$.-.@.,.-.X.a #     ~ ,.#.-.$.-.$.*.$.$.-.$.-.",
"#.:.$.-.$.-.$.=.$.=.,.D   +  .,.>.#.-.#.-.#.:.#.-.$.-.$.-.$.-.$.-.$.$.-.$.*.$.-.$.:.#.:.#.-.-.-.+.$.S   D ,.$.-.$.-.$.=.-.$.-.$.",
">.#.-.$.-.$.-.$.-.-.Z     ~ o.Q >.-.#.-.$.:.$.:.$.-.#.:.#.-.$.-.$.-.$.=.-.$.-.$.-.#.-.$.-.$.-.:.@.$.,.S   Z -.$.=.$.=.$.-.-.$.-.",
"$.-.$.-.$.-.$.-.-.f     y $.$., C -.>.$.-.#.-.$.-.$.-.#.:.$.-.$.-.$.-.$.$.-.$.-.$.-.$.:.#.;.-.I v -.$.-.y   f -.$.*.$.-.%.$.-.$.",
"-.$.-.$.-.$.$.-.f     s $.-.>.I & k o.>.$.=.$.-.$.-.$.-.$.-.$.-.$.-.$.-.-.$.*.$.-.%.*.$.,.O.b & J -.$.;.~     Z ,.$.-.$.$.-.$.-.",
"$.-.$.-.$.$.,.S     s -.:.#.>.[ ; - - ^ :.=.$.$.-.$.-.$.-.$.-.$.-.$.-.$.$.-.$.-.$.$.=.:.) ; - = ^ ,.$.-.$.u     S ,.$.-.=.$.-.$.",
"-.-.-.$.$.,.!     p $.:.$.*.-.#.w - > = V @.>.$.$.=.$.-.$.-.$.$.$.=.%.-.$.=.-.$.$.>.#.G = ; > > O.-.-.$.;.]   o   ~ ,.$.=.%.-.$.",
"$.$.=.$.-. .    $ @.-.$.=.$.$.,.L = > 2 * 7 ' >.$.=.-.$.-.=.=.-.$.%.$.-.-.=.=.$.>.} g & - , - m -.$.$.-.$.,.~        .-.$.%.-.$.",
"$.-.$.-.$.u      .,.#.-.=.$.=.-.} = h O./ ; = L -.-.$.$.=.$.-.$.-.$.-.$.$.$.-.-.U = ; U / 4 = W >.$.$.-.$.$.-. .+   y $.%.-.=.$.",
"-.$.-.-.R     R ,.$.-.=.*.-.$.:.#.6 l :.>...j & x @.-.-.$.-.$.-.$.-.$.-.$.,.@.b & n O.,.,.l - o.>.$.-.$.-.-.$.,.~     D ,.$.$.-.",
"#.-.-.@.+   a ,.$.-.$.-.$.$.-.#.,.H - @.*.-.#.M & : _ -.-.$.-.&.-.$.$.$.,.[ 3 * H *.-.:.O.- M :.#.-.$.-.$.=.=.$.,.Z   + +.-.$.$.",
":.#.,.A     ] -.=.$.$.-.-.-.=.%.:.{ * _ :.$.-.-.L = & J #.,.#.-.$.-.-.-.P = * P -.=.$.-._ & ^ -.-.$.-.$.-.$.-.$.-.@.+   S ,.$.-.",
"#.-.X.O   Z -.-.$.-.$.-.$.$.-.$.-.@.2 m ,.$.-.#.,.} l % z [ ,.$.-.>.o.b & - ^ -.$.-.$.>.x ; +.:.$.-.$.-.$.-.$.-.$.,.T     X.-.$.",
":.:.R     ] ,.#.-.$.-.$.$.-.$.-.#.,.F * } ,.#.-.#.,.#.H * - U ,.$.W - * x | :.$.-.#.,.' * V ,.@.-.#.:.#.:.#.-.$.=.*.@.#   A -.-.",
"#.-.y   d ,.#.-.$.-.$.-.=.$.-.$.-.-.{ * C =.:.#.:.#.>.=.) 4 & F -.[ Q [ *.:.$.*.$.-.-.J & ) =.-.#.>.$.:.#.:.$.-.$.$.,.A   r #.=.",
",.`     ~ -.:.$.:.$.*.$.=.-.$.-.$.-.+.q - o.&.:.#.>.#.:.:.X.m & l $.,.>.=.$.-.$.-.$.%.4 > O.,.@.>.#.>.#.:.#.-.$.-.$.-.X.    ~ ,.",
":.D   r +.>.#.:.#.-.$.*.*.$.-.#.-.#.,.F & L ,.@.-.#.-.#.,.>.>.W = = ^ $.:.$.$.-.#.,._ * N ,.@.:.#.>.#.:.#.:.#.=.$.-.$.-.a   d :.",
",.s   Z ,.#.-.#.-.$.-.=.$.-.$.:.$.-.-.{ * z @.:.@.,.=.@.Q P ..,.} q & x ' :.-.$.:.-.^ & Q =.:.#.>.#.>.#.:.$.:.$.-.$.*.,.S   r @.",
"X.@   ~ -.-.#.-.$.-.$.*.*.$.-.#.:.#.,.X.8 6 %.#.,.#.P - * C -.#.,.#.V * = K -.-.#.,.l - ..,.@.>.@.;.@.:.@.:.#.-.$.-.$.-. .    ] ",
" .  o  .,.@.-.$.-.=.=.=.=.*.$.:.#.:.#.,.V < @.,.X.c * ; / ,.$.-.#.:.:.Q > & V $.,.} = n >.#.>.#.:.#.:.$.:.#.:.$.-.$.-.-.X.r   T ",
"R   a ,.@.:.#.:.#.-.$.*.=.$.-.$.-.$.-.:._ F ,...i & c | ,.#.-.$.-.$.$.,...n % H ,.^ % Q =.:.#.:.@.;.@.:.@.:.$.-.$.-.$.$.,.y   A ",
"D   U -.:.#.:.#.-.$.-.=.$.-.$.:.$.:.#.-.O.,.} 2 * K @.,.@.:.$.-.$.-.$.$.-.$.I * ..M = | ,.@.:.@.:.#.;.@.:.#.-.$.-.$.-.$.-.S   a ",
"f   R ,.#.-.$.:.$.-.$.-.=.$.-.#.-.$.-.$.,./ = - _ =.,.@.-.#.-.$.-.$.-.$.$.-.-.| ) ; c ;.=.;.@.:.#.;.@.-.#.:.#.-.$.-.-.$.,.S   r ",
"u   ` -.:.$.-.$.-.$.*.=.=.*.=.-.#.-.-. .N & k $.-.-.@.>.#.:.#.-.#.-.$.-.*.$.$.,.) % ^ } Q -.:.@.>.$.>.@.:.$.:.$.-.#.-.$.,.!   O ",
"#   R ,.@.-.$.-.$.-.$.*.$.$.-.#.,.$.I = * L ,.o.$.#.>.#.:.@.-.$.-.$.-.$.$.-.$.;.v = @.^ % K $.,.@.-.$.-.#.-.#.-.$.-.$.$.,.!   O ",
"O   R -.-.#.:.#.-.$.=.=.-.$.$.,...v & 8 _ ,.$.z ' ,.#.:.$.:.$.-.$.:.$.&.-.$.>...- M ,.X.0 & k | ,.$.*.$.:.#.:.$.-.$.-.$.-.`   $ ",
"o   D ,.@.:.#.-.#.-.$.*.$.%.,./ ; * B O.,.#.#.= P :.-.$.-.$.:.$.-.$.-.$.-.$.-./ & E -.>.} x & - Q ;.$.-.$.-.$.=.$.-.$.$.,.~   $ ",
"o   A -.-.#.:.$.:.$.-.$.-.$.F & ; Q $.>.#.,.o.- l -.#.-.$.-.#.-.$.-.$.$.=.$.,.N * [ ,.@.>.@.W ; & V #.-.-.#.-.$.-.$.-.$.-.~   @ ",
"O   s >.#.-.$.-.$.$.%.:.| j & x X.-.-.#.-.$.$.e = } :.#.-.#.-.$.-.$.$.-.%.-.X.; 7 @.=.-.#.:.-.#.N * 8 _ :.-.$.:.$.=.=.$.,.T   + ",
"t   u =.-.$.-.$.*.-.-.W - * K -.-.-.$.-.$.-.:.H & I :.=.$.:.$.-.$.-.-.$.$.;.( * M =.*.$.:.$.=.$.,.U = = J $.:.#.=.=.*.$.,.D   + ",
"d   t =.=.-.$.$.,.o.m * > _ ,.$.$.$.-.$.*.#.>.' = x =.$.-.$.*.$.-.$.$.%.$.,.C % ) ,.#.-.#.-.$.%.#.,._ q & k ..,.$.$.=.$.;.Z   # ",
"D   r @.-.$.-.,./ > * m +.,.=.*.=.=.=.-.:.-.=.-.x = ..:.$.=.$.*.$.%.-.%.>.O.- J ;.%.-.=.:.*.-.%.-.=.,.@.C = - / >.-.$.-.$.y   y ",
"`   r $.$.-.$.H = ; I $.*.#.$.-.-.-.#.#.X.#.$.,._ & P :.$.>.:.-.$.=.$.$.%..._ $.$.#.$.@.#.@.$.@.$.@.#.#.$.W ; = H $.-.-.@.$   A ",
"$.+ t -.-.| g = < 6 c l h j k v m j i 5 5 1 l / -.w j =.@.b N b n z z h q g h 0 0 w 8 w 8 w 8 q 7 q 7 8 7 i 3 1 = h } ,.~   @ X.",
",.T a :.[ g 1 5 ; - = = = = - = = - ; ; : ; - - X.E * ..>.C * * * * = = - > 5 ; = - = - = - = - - - = - - - - - ; - ; ^ X.` @.:.",
"=.#.#.,.*.$.$.X...} ..| | ..| ....o.X.O.o.o...#.-...= I ,.:.} ( W ( [ } O.#.@.O...| ..} ..} X.} ..} ..} ..| ............-.#.#.$.",
"-.-.~ s ..-.*.-.-.:.>.-.:.:.:.:.:.:.-.:.-.>.-.-.&.#.: c &.-.-.>.>.,.:.,.} c X.>.:.:.,.-.:.-.,.*.>.:.>.:.>.:.:.=.>.-.>.$.f   ~ ,.",
"#.,.a   y :.#.*.$.-.$.%.$.$.$.$.-.#.-.#.-.#.:.#.-.$.x = X.-.$.$.$.#.-.X.= w %.-.#.=.#.-.$.-.@.=.@.-.#.-.#.*.$.-.$.-.$.a   $ @.$.",
":.-.D     ` >.$.-.$.-.$.=.*.=.*.$.=.$.-.#.:.$.-.#.,.Q & U ,.#.-.$.-.>.K & E >.#.-.$.-.#.:.#.-.$.-.$.-.$.:.$.-.$.-.-.~     S ,.-.",
"@.,.X.X   d $.-.$.-.$.=.=.=.*.$.-.$.-.$.:.#.:.#.-.=.X.= n #.:.$.-.$.%.v = [ :.=.$.:.$.:.$.:.$.:.#.:.#.-.#.:.#.-.#.-.u   o @.-.#.",
":.@.,.S     ] -.$.*.=.=.$.*.$.-.$.-.$.-.$.:.$.-.#.-.$.z = @.-.-.#.:.O.- e $.=.$.-.$.:.$.-.#.:.#.-.$.:.#.:.#.:.#.,.]     D >.$.:.",
"@.-.#.@.+   r -.$.-.$.*.*.=.=.$.-.$.:.#.-.@.:.@.>.#.,.E & U ,.#.-.>.' * L :.$.-.#.-.#.-.@.:.#.:.#.:.#.:.$.-.#.-.-.d   # X.-.-.#.",
",.#.-.-.!     A ,.#.:.$.=.-.$.-.$.-.$.:.@.:.#.>.$.;.$...= m $.-.#.,.Y * ' :.=.$.:.$.:.#.,.#.:.#.>.#.:.$.:.$.-.-. .X   R ,.$.$.,.",
"@.:.#.-.=.f     ~ ,.#.-.=.$.-.$.*.$.;.@.:.#.:.#.;.@.;.$.l = @.%.-.$.9 7 $.*.$.-.$.=.$.:.@.>.#.:.@.:.@.:.#.-.$.-.s   s ;.$.$.:.#.",
",.@.,.@.,.@.$   # X.-.$.$.-.$.-.$.-.#.-.$.;.@.>.@.>.@.,.Y & E ,.-._ & K :.$.-.$.-.@.:.#.:.@.>.#.;.$.:.#.-.$.=.d   O @.-.$.-.$.-.",
"@.,.#.:.#.,.]     y @.-.=.$.-.$.-.$.:.$.;.@.>.@.>.@.-.=. .= M $.>.L * ) ;.*.$.-.$.:.$.:.#.>.#.>.@.:.@.;.$.-.s     ] -.$.-.=.-.#.",
">.@.:.#.:.#.,.~     a $.-.-.$.:.$.-.@.-.#.:.@.:.#.>.@.;.$.i - #.$.6 3 $.*.$.-.$.-.$.-.$.>.#.>.#.;.@.-.$.:.d     R -.=.$.$.=.$.-.",
"@.:.@.:.$.:.$.,.R     a #.-.=.#.*.$.:.$.:.#.:.@.;.$.;.@.,.Y % Q ..& J -.=.*.$.-.$.-.#.-.#.>.#.>.@.-.=.-.d     D -.-.$.*.-.$.-.$.",
",.@.;.#.-.#.;.@.,.T     y X.,.-.$.;.$.:.$.:.#.,.@.:.@.-.=...= C P & _ >.=.$.-.$.-.@.:.$.>.#.;.@.;.=.@.p     D *.-.%.-.=.$.-.$.-.",
"@.:.#.:.$.-.$.*.#.,.R     + ` -.-.@.-.@.;.#.:.#.;.@.:.$.:.#.i ; < 6 $.-.$.=.=.-.$.-.$.-.#.-.@.,.-.] #     T =.-.$.-.$.$.-.$.-.$.",
">.#.:.$.-.$.-.#.:.#.,.`       A #.,.#.-.#.-.#.:.#.:.#.:.#.,.P = = J :.$.%.$.-.$.:.#.-.$.-.#.,.@.S       ~ :.-.#.-.$.-.$.-.-.$.-.",
"#.:.#.-.$.-.$.:.$.:.#.,.X.t     t ` >.:.:.#.:.@.:.#.>.#.-.-.| - - _ >.$.$.-.$.-.#.-.#.>.:.>.~ r     $  .-.-.$.-.$.-.$.-.$.$.-.$.",
":.#.-.$.-.$.-.&.-.$.=.$.-.-.A       a ] -.,.$.-.#.=.#.-.#.-.#.w 7 %.*.-.-.*.$.$.-.-.,.$.` s       Z =.-.$.$.:.$.-.$.*.$.$.-.$.-.",
"#.:.$.-.#.-.#.-.$.-.$.*.$.$.,.] s       A  .=.-.,.:.,.:.-.#.,.F F ;.$.%.$.-.-.,.-.X.R y       a ` ,.$.-.#.-.#.-.$.-.$.=.-.$.-.$.",
":.$.-.$.-.$.-.$.-.$.$.-.-.$.$.,.-.` y       y f D ! `  .@.,.-.[ _ ,.-.:.$.X.] T a O       y ` #.,.#.:.$.:.$.-.$.-.$.-.$.$.-.$.-.",
"$.-.$.=.$.-.$.-.$.$.-.$.$.-.-.#.-.-.-.` Z X           o t T $.-.-.` s s y O         O f ~ -.-.-.#.-.$.=.#.-.$.-.$.-.$.-.-.$.-.$.",
"-.$.=.$.-.$.-.$.-.-.$.-.$.-.$.-.$.$.$.,.-.@.R Z r .         +  .$.+         o y Z ! @.-.,.$.=.$.-.$.=.$.-.$.-.$.-.$.-.$.=.%.$.-.",
"=.=.*.=.=.$.*.$.-.$.-.$.=.$.-.$.-.$.-.$.$.-.>.-.$. .` T S A d T @.@ o y D ~ X.$.-.,.-.$.$.=.*.$.=.=.*.=.-.$.-.$.$.-.$.-.$.$.-.$."
};
