/* XPM */
static char *enemy1695809420[] = {
/* columns rows colors chars-per-pixel */
"64 64 221 2 ",
"   c #000000",
".  c #0C0201",
"X  c #04070A",
"o  c #000D0C",
"O  c #140002",
"+  c #1B0001",
"@  c #190608",
"#  c #15100C",
"$  c #060B12",
"%  c #011313",
"&  c #0D1111",
"*  c #001915",
"=  c #001C1B",
"-  c #141313",
";  c #1A1717",
":  c #1C1B1B",
">  c #250000",
",  c #2C0000",
"<  c #2A070A",
"1  c #330002",
"2  c #3B0001",
"3  c #330209",
"4  c #3D010A",
"5  c #260F10",
"6  c #370D10",
"7  c #2C1617",
"8  c #201D1B",
"9  c #36181A",
"0  c #1C201F",
"q  c #25211D",
"w  c #2B251E",
"e  c #032220",
"r  c #182928",
"t  c #163130",
"y  c #232424",
"u  c #2B2622",
"i  c #2F2821",
"p  c #2C2B2B",
"a  c #322A22",
"s  c #39342A",
"d  c #263635",
"f  c #373535",
"g  c #3D3D3D",
"h  c #440001",
"j  c #4B0000",
"k  c #44020B",
"l  c #4C010B",
"z  c #49090E",
"x  c #550000",
"c  c #580000",
"v  c #52000C",
"b  c #5C010C",
"n  c #460E12",
"m  c #5A0C12",
"M  c #421719",
"N  c #461518",
"B  c #4B191C",
"V  c #52171A",
"C  c #571619",
"Z  c #54191D",
"A  c #640000",
"S  c #6D0000",
"D  c #65000C",
"F  c #6C000E",
"G  c #720000",
"H  c #72000D",
"J  c #7B000E",
"K  c #680C14",
"L  c #66151A",
"P  c #6D161B",
"I  c #481E20",
"U  c #661C20",
"Y  c #7C1C22",
"T  c #483C30",
"R  c #403E3E",
"E  c #732126",
"W  c #4B4232",
"Q  c #564737",
"!  c #5F533C",
"~  c #3C4746",
"^  c #434444",
"/  c #444B4B",
"(  c #4B4B4B",
")  c #514E4E",
"_  c #4D5454",
"`  c #545555",
"'  c #545B5B",
"]  c #5C5B5B",
"[  c #675540",
"{  c #735D46",
"}  c #605F5F",
"|  c #51605F",
" . c #786048",
".. c #7C644B",
"X. c #61605F",
"o. c #596363",
"O. c #646363",
"+. c #686969",
"@. c #6C6C6B",
"#. c #716E6E",
"$. c #71706F",
"%. c #6E7574",
"&. c #747574",
"*. c #787777",
"=. c #727978",
"-. c #7C7C7B",
";. c #850000",
":. c #83000D",
">. c #8A000F",
",. c #850010",
"<. c #8B0011",
"1. c #850B16",
"2. c #940111",
"3. c #9D0013",
"4. c #970B18",
"5. c #84141C",
"6. c #8A161E",
"7. c #97141E",
"8. c #B40000",
"9. c #B80009",
"0. c #A40013",
"q. c #AC0013",
"w. c #A80318",
"e. c #A30D1B",
"r. c #AD0B1B",
"t. c #B60014",
"y. c #B90014",
"u. c #B3051A",
"i. c #BA0119",
"p. c #B40B1B",
"a. c #B90C1D",
"s. c #A3131E",
"d. c #AB111E",
"f. c #B7101F",
"g. c #871A20",
"h. c #981821",
"j. c #A61621",
"k. c #B51723",
"l. c #BA1220",
"z. c #B9212A",
"x. c #BA2D32",
"c. c #BE3439",
"v. c #C10014",
"b. c #C1011A",
"n. c #C20B1E",
"m. c #C01221",
"M. c #BE484B",
"N. c #82674C",
"B. c #83694D",
"V. c #866D51",
"C. c #8C7154",
"Z. c #987958",
"A. c #807F7F",
"S. c #A06F6D",
"D. c #C04448",
"F. c #C4575A",
"G. c #C76668",
"H. c #CE7175",
"J. c #CB7678",
"K. c #A5825D",
"L. c #AC8862",
"P. c #B38E66",
"I. c #B89268",
"U. c #BD966A",
"Y. c #C59C6E",
"T. c #C89E6F",
"R. c #C89E70",
"E. c #CCA172",
"W. c #D3A776",
"Q. c #D6A977",
"!. c #D17E80",
"~. c #848483",
"^. c #898686",
"/. c #868B8B",
"(. c #8C8C8C",
"). c #939392",
"_. c #989897",
"`. c #9C9C9B",
"'. c #A19F9F",
"]. c #B8A09F",
"[. c #A3A2A2",
"{. c #A8A7A7",
"}. c #ABABAB",
"|. c #B0AFAF",
" X c #B4B4B3",
".X c #B8B7B6",
"XX c #BCBBBB",
"oX c #CF8786",
"OX c #D19293",
"+X c #DB9FA0",
"@X c #D3ACAD",
"#X c #C0BFBE",
"$X c #E2B5B6",
"%X c #E4B8B9",
"&X c #C4C4C3",
"*X c #C9C8C7",
"=X c #CCCBCB",
"-X c #D4D3D3",
";X c #D8D7D7",
":X c #D8D8D7",
">X c #DCDCDB",
",X c #EAC7C8",
"<X c #EDCFD0",
"1X c #EFD3D4",
"2X c #E0DFDF",
"3X c #F2D9D9",
"4X c #E0E0DF",
"5X c #E6E6E6",
"6X c #E8E6E6",
"7X c #EBEBEB",
"8X c #F6E3E4",
"9X c #F9E4E6",
"0X c #FAE7E9",
"qX c #F0EFEF",
"wX c #FBEBED",
"eX c #F0F0EF",
"rX c #F0EFF0",
"tX c #FEEFF0",
"yX c #F3F3F3",
"uX c #FEF2F3",
"iX c #FCFCFC",
/* pixels */
"iXiXiX7X7XyXiXiXrX7XyXiXiXyX7X7XiXiXiX7X7XyXiXiX7X7XyXiXiXyX7X7XiXiXyX7X7XyXiXiX7X7XyXiXiXyX7X7XiXiXiXyX7X7X2X*X X X'.` ` 5XyX7X",
"iXiXyX7X5XiXiXiX7X6XyXiXiXyX7X7XiXiXiX5X5XiXiXiX7X7XyXiXiXyX7X7XiXiXiX7X6XiXiXiX7X7XyXiXiXyX5X7XiXiX-X_.X.y               ).>X>X",
"iXyXyXyXyXyXiXyXyXyXyXyXyXyXyXyXiXyXiXyXyXyXiXyXyXyXyXiXyXyXyXyXiXyXyXyXyXyXiXyXyXyXyXyXiXyXiXyX&XX.        W Q u q u ; &     ^.",
"7X7XyXiXiXyX5X7XiXiXiX7X7XiXiXiX7X7X7XiXiXyX5X7XiXiXiX5X7XiXiXiX7X7XyXiXiXyX7X7XiXiXiX7X5XiX>XO.    s C.V.B.Q.L.u i i w ;   ~ yX",
"7X7XyXiXiXyX7X7XiXiXiX7X7XyXiXiX7X7X7XiXiXyX7X7XiXiXiX5X7XyXiXiX7X7XyXiXiX7X7X7XiXiXyX7XyX}.    T Q U.Q.B.L.W.B.$ a a 8   . >XiX",
"yXiXyXyXyXyXiXiXyX7XyXiXiXyXyXyXiXiXyXyXyXyXiXiXyXyXyXiXiXyX7XyXiXiXyX7XiXiXiXiXiXyXiXiX^.    V.I. .R.Y.{ U.U.W q i i y   - :XiX",
"iXiXiX7X7XiXiXiX7X7XyXiXiXyX5X7XiXiXiX7X5XiXiXiX7X5XeXiXiXeX5X7XiXiXiXqX=X`.~.&.A.'.=X~.  $  .Q.P...E.U. .E.Q.B.& a i i 0   W 7X",
"iXiXyX7X7XyXiXiX7X7XyXiXiXyX7X7XiXiXyX7X7XyXiXiX7X7XyXiXiXiXrXeXiXiXiX).                T C.V.E.P.{ E.E.{ C...T & 8 u 8   & '.7X",
"7X7XyXiXiXyX7XyXiXiXyX7X7XyXiXiX7X7XyXiXiXyXqXyXiXiXyX5X5X7XyXyX7XiX{.  ; Y s.s.7.5.; w I.P...R.Y. .L. .#             -    XiXiX",
"7X5XyXiXiXyX5X7XiXiXiX7X7XiXiXiX7X5XyXiXiXyX-X X_.&.` ~ d r d / ] ~.p   4.v.y.y.v.4.  N.W.I.{ Y.E. .    X *.}.&X>X;X).&   5XiXiX",
"yXyXyXiXyXyXyXyXiXyXyXyXyXyXiXyXyXiXyX;X_.`         + 1 h j h 1 .     z y.y.y.y.q.  [ V.Y.T.{ L.N.    -.>XiXiXiXiXiXiX6X}.7XiXyX",
"iXiXyX6X7XiXiXiX7X5XyXiXiX7X5XyXuX#X}       b 5.h.k.a.i.i.y.t.i.n.Y o v q.y.y.i.j W Y.{ Y.T.I.s X   `.iXeXyXiXiX7X5XqXiXiXyX7X7X",
"iXiXiX7X7XyXiXiX7X7XyXiXiXiX7X.X(     C h.p.y.v.v.y.y.y.y.y.y.q.>.+ 4 l J y.y.q.  K.Q...Z.Q.Z.  V   O.7X7XiXiXiX7X7XyXiXiXyX7X7X",
"yX7XyXiXiXyXyX7XiXiXyX7XiX>X@.    P s.y.y.y.y.t.y.t.y.y.y.y.2.l O . v v k 3.v.y., ! E.Y.{ L.* G y.B   [.iXyX7XyXiXiXyX7XyXyXiXiX",
"7X5XyXiXiXyX5X7XiXiXiX7X|.    Z e.v.y.t.t.y.t.y.y.t.y.t.y.t.l l + 4 v v v v 0.v.0.  f K.Z.* 2 y.v.w.  f yXyX5X7XiXiXiX7X6XiXiXiX",
"7X7XyXiXiXyX7XyXiXiXiX^.    5.y.y.t.y.y.t.y.y.y.t.y.y.t.y.0.l b + 3 v l v l l 2.v.q.x   % < 0.y.t.y.C   -XiX7XrXiXiXyXeX7XyXiXiX",
"iXiXyX7X6XyXiXiXeX7X#.  9 3.q.y.y.y.y.y.t.t.y.y.y.y.t.y.y.t.b l 3 O l l l b k J y.y.v.t.0.t.y.t.t.v.P   .XiXiXiX7X7XyXiXiXyX7X7X",
"iXiXiX7XyXiXiXiX7X+.  I q.J 3.y.t.y.t.y.y.y.y.t.t.y.y.t.y.y.>.k v   4 b l l v t.y.y.0.q.y.y.y.y.t.y.n   *XiXiXiX7X7XyXiXiXyX5X7X",
"iXyXiX7X^.>XiXiX-.  I w.F b y.y.y.y.t.t.t.y.y.t.t.y.y.y.y.y.y.F l 4   l b 4 >.y.y.y.D k J y.y.t.v.5.  +.iXyXyXyXyXyXiXyXyXyXyXyX",
"5X7X5X`   : :X_.  9 q.F < 3.v.t.t.y.y.y.y.y.t.y.y.y.t.t.y.t.y.t.D l 3   k b q.y.y.0.k l 2.v.y.y.q.:   #XiX7X6X7XiXiXyX7X7XiXiXiX",
"7XrXO.  -X]   : O 0.H k v t.y.t.t.y.y.y.y.y.t.y.y.t.y.y.y.y.y.y.t.H k 3   D y.y.y.F k F y.y.t.v.D &   _ yXyX5X7XiXiXiX7X7XiXiXiX",
"iX X  =XiX6X@.  g.,.4 l F y.y.t.y.y.t.t.t.y.t.y.y.t.y.t.t.y.t.t.t.y.>.b <   k 0.0.v l 3.y.t.v.3.  0.5.  ^.iXiXiXeX7XyXiXiXyX7X7X",
"iXy ~.yX5X7X7X*.  M b k ,.v.t.y.y.t.t.y.y.y.y.t.y.y.t.t.t.y.y.y.y.t.y.t.,.v     5 9 L k.f.t.2.  D v.y.V   -XiXiX7X6XeXiXiXyX7X7X",
"&X  -XyX7X7X7XyX~.  B z 3.y.t.y.y.y.y.y.t.y.t.t.t.y.y.v.n.f.q.y.t.t.t.y.y.t.2.P 1         X * D y.t.y.s.  X.iXiXyXeXyXiXiXyX7XyX",
"~.^ qX7X7X7X7X7XyX).  M t.y.t.y.t.y.t.t.y.y.y.y.n.l.d.>.j   @ q.y.y.y.t.t.y.a.8.M.OX@X].S.;.8.m.y.t.t.v.P   .XyXiXiXiX6X7XiXiXiX",
"g ~.yX6X7X7X7X7X7XyX`.  5.b.t.t.y.t.y.y.b.f.k.<.A +     o.-.  2.y.t.t.y.y.a.8.oX0XuXqXwXwX1XF.8.f.y.y.y.r.  X.yXiXiXyX5X6XyXiXiX",
"  {.yX7X7X7X7X7X7X7XyX{.  H b.y.t.y.a.7.S ,     ~ ~. X:XeX7Xd G b.y.y.y.a.8.J.uX0X9X9X9X0XwXwXoX8.l.y.y.y.L   -XiXeXyXiXiXyXyXyX",
"   XyX7XeX7X7X7X7X7X6XiX.X  A i.t.K     d =.{.-X7XyXyXyX7XeXo.j n.y.y.t.i.8.<XwX9X0X0X0X0X0X0XwXH.8.f.y.y.7.  (.yX5XyXiXiXyX5X7X",
"   XyX7X7X7X7X7X7X7X7X6XyX#X  F p.  %.=X5XyXyXeX7X6X7X7X6XyX%.2 n.t.t.i.8.D.0X0X0X0X0X0X0X0X9XwX8Xc.8.y.y.u.> ~ 7X7XyXiXiXyX7X7X",
". ).yX6X7X7X7X7X7X7X7X7X6XiX/., z.  }.iX7X7X7X6X7X7X7X7X6XyX=., l.y.y.a.8.F.0X0X0X0X0X0X0X0X0X9XuX@X8.m.t.v.K   ;XiXyX7X7XyXiXiX",
"O.+.yX7X7XeX6X7X7X7X7X7X7XeX+.h k.  [.yX6X7X7X7X7X7X7X7X7XyX%.+ f.y.y.t.8.x.3XwX0X0X0X0X0X0X0X0X0X8Xx.8.i.v.g.  |.iXyX7X7XyXiXiX",
"[.  5X7XeX-X0 _.yX7X7X7XeX4Xr 1 j.@ (.yX6X7XyXeX7X7X7X7X7X7X_ > a.y.y.y.a.8.,XuX9X0X0X0X0X0X0X0X0XtXG.8.a.y.d.  ~.iXyXyXyXyXiXiX",
"5X  |.yXeX~.  : >XrX7X5XyX}.  Z r.x o.rX7X7XXX-XeX7X7X7XeX>Xe j t.t.y.y.a.8.H.wX0X0X0X0X0X0X0X0X0XtX!.8.l.y.p.  ` 7XyXiXiXyX7X7X",
"iX~.y 7XyXO.    =XyX5X7X7Xg > K y.:.* :XiX X  ( 5X7X7X5XyXXX  P y.t.t.y.t.l.8.$XuX8X0X0X0X0X0X0X9XwXG.8.a.y.i.2 d 5XyXiXiXyX5X7X",
"iX X  ~.iX&.    -X7X7XyX-.  Z >.v.k.  [.iXO.    &XyX7X7XyX&.  5.v.y.y.y.t.y.9.p.1XtX9X0X0X0X0X8XwX3Xa.9.y.t.b.j % 6XiXqXyXyXiXyX",
"yX`.    (.XX  *.yXyX7XK.  Z D q.y.i.c t 5XO.    XXyX5XyX*X  6 0.y.y.y.t.y.y.a.8.z.,XuXwX0X0X8XtXuXJ.8.l.y.y.i.b   5XiX5X5XiXiXiX",
"iX'.  U   ( @.XX=X'.~   M b <.y.t.y.d.  ^.(.    *X7XyX5X^   L y.y.y.y.t.y.y.t.a.8.8.OX3XtXuXwX3XJ.8.a.y.y.t.y.K   :XiX7X7XiXiXiX",
"iX}.X h.Y       X X   7 3 >.y.y.y.t.v.,.  )   ).iXyX:X'   M >.y.t.t.y.y.t.y.t.y.l.8.8.u.F.J.G.i.8.a.t.y.y.t.y.b   -XiXiXiXyX7X7X",
"iX.X  5.:.6 6 5 7 9 7 3 k t.y.y.y.y.y.y.1.  r ).}.~.o   9 H y.y.y.y.y.t.y.t.y.a.8.J.<X<X+X9.8.a.f.t.y.y.t.t.y.j = >XyXiXiXyX6X7X",
"iX#X  5.<.k v k 4 4 k l l 2.y.t.y.y.y.y.v.2.O       1 N D t.y.t.y.t.y.t.y.y.a.8.G.uXuXwXuX3XD.8.a.t.y.t.y.y.i.2 d 7XiXyXyXyXyXyX",
"yX=X  K 3.k v v v v v b k F y.y.t.y.y.t.t.y.q.P Z Z K >.t.y.t.y.y.t.y.y.t.y.f.8.%XuX8X9X9XuX1X9.y.t.t.y.y.y.r.  ` iXiX6X7XyXiXiX",
"7X5Xr h w.k v l v l v l v l q.y.t.y.y.t.y.t.y.y.q.q.q.y.y.t.y.y.t.y.y.t.y.t.f.8.%XtX9X0X0X8XuXoX8.l.y.y.y.y.s.  -.iXyX7X7XyXiXiX",
"iXiX]   e.b l v v v v v v k J v.t.t.y.y.y.y.y.y.y.y.y.y.t.y.t.y.y.y.y.t.y.y.k.8.oXuX9X0X0X9XwX%X8.l.y.t.y.v.6.  [.yXyXiXiXyXyX7X",
"iXiX_.  h.,.z v l v v v v l l q.y.y.y.t.t.t.t.t.y.y.y.y.i.b.n.y.t.t.y.y.t.y.y.i.8.,XuX8X9X8XuX$X8.l.y.y.y.y.C   =XqXqXiXiXyX7X7X",
"iXiX*X  C S n V Z C C C m v k J y.y.y.y.i.b.n.f.l.k.d.3.;.S c h b y.y.y.y.t.t.i.8.x.<XuXuXuX0XF.8.a.y.t.y.t.  g 7XyXyXiXiXyX7XyX",
"7X7X7Xg   =           > 2 n V B s.m.f.s.2.;.A j >       e ~ +.e j y.t.t.t.y.y.t.a.8.f.OX,X%XG.8.u.y.t.t.v.6.  ^.iXiXyX7X7XyXiXiX",
"7X5XiX).u :X=XXX[./.+./ y         O     o t ' %.).}.#X-X4XyXXX  K v.y.y.y.y.y.y.y.a.9.8.8.8.8.a.y.y.y.y.y.V   *XiXiXiX7X5XiXiXiX",
"yXyXiX}.  5XyXyXyXyXyX6X>X-X#X[.(.`. X*X-X5XyXyXyXyXyXeXyX>XO   K y.t.y.y.t.t.y.y.y.i.l.a.f.a.y.t.y.y.y.7.  ] iXyXyXyXyXyXyXiXyX",
"iXiXiX5X: ] 7X7X7X7X7X7XyXyXyXyXyXyXyXyXyX>X-XrX5X7X6X7XqX}   * H y.t.y.y.t.t.y.t.y.y.t.t.y.y.y.y.t.t.y.Z   XXiX7X7XyXiXiXyX7X7X",
"iXiXyXyX*X  ).yX6X7XyXXX~.yX7X6X6X7X7X7X6X( g 7X7X7X6XyX_.  = 2 y.y.y.t.y.y.y.y.y.t.y.y.y.y.t.t.y.t.y.7.  ] iXiX7X7XyXiXiXyX7X7X",
"7X7XyXiXiX).  XXyX7X5Xg   ~.yX7X7X7X7XyX%.    $.yX7XyX*X  % . q.y.y.y.y.t.y.y.t.y.t.t.y.y.t.y.y.i.y.t.7   &XyX7XiXiXiX7X7XyXiXiX",
"7X5XyXiXiX7Xp   ;XiX&.  (   ~.rX7X6XyX^.  `.;   (.yX5Xf   % 2.v.t.y.t.y.y.t.t.y.y.y.y.y.t.y.t.t.y.y.L   ^.iX7X7XiXiXyX7X7XiXiXiX",
"yX7XyXyXiXiX*X  @.}.  ` >X`   A.7XiX'.  XXiXO.     X~.  = J v.t.y.y.t.y.y.t.y.y.t.t.y.y.y.t.y.t.v.5.  R eXiXeXyXyXiXyXyXyXyXiXyX",
"iXiXiX7X7XyXiX[.      -.iX>X]   ~..X  {.yXyX&X  ;     o b y.t.y.y.y.t.y.y.t.y.t.y.y.y.t.y.t.t.v.4.    =XyXyXiXiX7X7XyXiXiXyX7X7X",
"iXiXiX7X5XiXiXiXA.    |.yX7X5X]     (.yX5X6XyXO.  8 o 2 t.y.y.y.y.y.y.y.y.y.y.y.y.t.t.y.y.t.v.3.%   .XyX5XiXiXiX7X7XyXiXiXyX7X7X",
"yXyXyXyXyXyXyXyXiXO.  XX5X5XyX7XO.~.iXyXyXyXiX=X  - X 3.v.y.y.t.t.t.y.t.t.y.t.t.y.y.y.t.y.v.4.*   {.iXyXyXyXyXyXiXyXyXyXyXyXyXyX",
"7X7XyXiXiXyX7X7XiX7X;   p ^ ^ | o.&.(.).{.XXXX=X`   6 D 2.y.y.y.y.t.t.y.y.y.y.t.y.y.t.y.y.6.    {.yXyXiXiXyX7X7XiXiXyX7X5XyXiXiX",
"7X7XyXiXiXyX7X7XiXiX6X^.    , S j               % 2 v l k b ,.q.y.y.y.t.t.t.y.y.y.y.v.t.P     #XiX5XyXiXiXyX7X7XiXiXiX7X7XiXiXiX",
"iXiXyX7X7XiXiXiXqX7XyXiXXX;   E k.4.P B B Z V n h v v v v l k l F <.q.t.y.y.t.t.y.y.7.5   ( -XyXyXiXyX7X7XiXiXiXyX7XyXiXiXyX7XyX",
"iXiXiX5X7XyXiXiX7X6XyXiXiX>X+.    5.r.w.J v k n l l v v v v v v l 4 4 l F 2.y.y.7.B     `.eX7X7XiXiXiX5X5XiXiXiX7X5XyXiXiXyX5X7X",
"iXiXyXyXyXyXiXyXyXyXyXyXyXiXiX#X(     P j.r.3.,.F b l l k k k l b F J 2.w.e.6.k     #.-XiXyXyXyXiXiXyXyXyXyXiXyXyXyXyXyXyXyXyXeX",
"7X5XyXiXiX7X7X7XiXiXiX5X7XyXiXiX7X.X]     1 K 7.j.d.w.0.0.0.0.q.e.d.h.5.c       *.-XiXyX5XiXiXiX7X7XyXiXiXyX5X7XiXiXiX7X7XiXiXiX",
"7X5XyXiXiXyX5X7XiXiXiX7X5XiXiXiX7XyXyX;X_./         2 j b D b h >       * O.[.:XiXiXiX5X7XiXiXiX7X7X7XiXiXyX7X7XiXiXiX5X5XiXiXiX",
"iXiXyXyXyXyXiXiXyXyXyXyXiXyXyXyXiXyXyXiXiXyX>XXX).@.~ *       r _ *.'.XX:XiXiXiXyX7XyXiXyXyX7XyXiXiXyXyXyXyXiXyXyXyXyXyXiXyXyXyX"
};
