/* XPM */
static char *exit1695809259[] = {
/* columns rows colors chars-per-pixel */
"64 64 45 1 ",
"  c #010101",
". c #060606",
"X c gray3",
"o c gray6",
"O c #101010",
"+ c gray9",
"@ c #181818",
"# c gray11",
"$ c #252525",
"% c #2A2A2A",
"& c #444444",
"* c #515151",
"= c gray32",
"- c #535353",
"; c gray46",
": c #7B7B7B",
"> c #7C7C7C",
", c #838383",
"< c gray54",
"1 c #9D9D9D",
"2 c #A9A9A9",
"3 c #AEAEAE",
"4 c gray70",
"5 c #BBBBBB",
"6 c #BCBCBC",
"7 c gray79",
"8 c LightGray",
"9 c gray83",
"0 c #D8D8D8",
"q c #DFDFDF",
"w c gray88",
"e c gray90",
"r c #E7E7E7",
"t c gray91",
"y c #EAEAEA",
"u c #ECEBEB",
"i c #ECECEC",
"p c #EEEEEE",
"a c gray94",
"s c #F3F3F3",
"d c #F4F4F4",
"f c gray97",
"g c #F8F8F8",
"h c gray99",
"j c white",
/* pixels */
"yyyygjjjsryypjjjjyyyyfjjjsryrygjjgyryrsjjjfryyyjjjjpyyrfjjjgyyyy",
"yyyrfjjjsyyyyjjjjyryrfjjjsyppfjjjjfspysjjjfryryjjjjyyyrsjjjgryyy",
"yyyrfjjjsryypjjjjyyyrfjjjgr075533467qrgjjjfryyyjjjjpyyrsjgjgyyyy",
"ryrrfjjjsryryjjjjrrryjg02;&o        o&;20fjyrryjjjjyrrrsjjjgrrry",
"fgffppppsgggfppppsjjq1-     o+@@@@+O     -1qjjfypppffffsppppfffg",
"jjjjprrrsjjjgrrryjq,   O#+o..       .o@@+   ,qjyryygjjjsryryjjjj",
"jjjjpyyysjjjfrrfr,   +O.                .O@   ,rsrrgjjjstyypjjjj",
"jjjjprrrsjjjfys4$ O@.                      .@o $4syfjjjsryryjjjj",
"fssspssspsssfy>  @                            @  :pgpsssssssssss",
"rryrgjjjsrrs9- #o                              o@ -0srrsjjjgrrry",
"yyyygjjjfrs8% #                                  # %8srsjhjgyyyy",
"yyyrgjjjsp8+ @                                    @ +8psjjjgryty",
"yppyfggfg9% @                                      @ %0fffffypup",
"jjjjprryy- @                                        # -yyyrpjjjj",
"jjjjpryg> #                                          # :srrpjjjj",
"jjjjprs4 @                                            @ 4frpjjjj",
"jjjjyyq$ o                                            o $rypjjjj",
"yyyrfj< @                                              @ <jsyyyy",
"yyyrjq o.                                               o qjryry",
"yyyrj, @                                                + ,jryyy",
"rrry0  .                                                .  qyrrr",
"fffj1 @                                                  + 1jfff",
"jjjj- O                                                  O -jjjj",
"jjj8 O                                                   .O 9jfj",
"jjj2 @                                                    @ 2jjj",
"ssg; +                                                    + ;jsf",
"ryr& o                                                    o &rrr",
"rpqO .                                                    . o0py",
"rp7 O                                                     .O 7sr",
"yf5 +                                                      + 5fy",
"gj4 @                                                      @ 4jg",
"jj4 #                                                      @ 3jj",
"jj3 @                                                      @ 4jj",
"gj4 #                                                      + 4jg",
"yf6 @                                                      + 6fy",
"rs7 O                                                     .o 7pr",
"rp0O .                                                    . o0py",
"ryr& o                                                    o &ryr",
"fsj; +                                                    + ;gfs",
"jjj2 @                                                    # 2jjj",
"jgj9 o                                                   .o 0jgj",
"jjjj- O                                                  O -jjjj",
"ffsj1 @                                                  @ 1jfff",
"yrrp0  X                                                .  0yrry",
"yyyrj, @                                                @ ,jryyy",
"ryyrjq O.                                               O qjryry",
"yyyysj< @                                              @ <jfyyyy",
"jjjjyyr$ o                                            o $qyyjjjj",
"jjjjprs4 +                                            # 4frpjjjj",
"jjjjpyys: #                                          # >srypjjjj",
"jjjjprryy- @                                        @ -yyyrpjjjj",
"pppyfffff9% @                                      @ %9fffgfyppy",
"ryyrfjjjsp9+ @                                    @ @9psjjjfryry",
"yyyrfjjjsrf8% #                                  # %9grsjjjfyyyy",
"rrregjjjsrry0- @o                              o# -9srrsjjjfrrrr",
"fsfsssssssffgp>  @.                          .+  :yfssspssssssfs",
"jjjjprrrsjjjfys4$ o+.                      .@O $4sygjjjsrrryjjjj",
"jjjjpyyrpjjjgyysr,   @O                  O@   ,rfrygjjjsyyypjjjj",
"jjjjyryrsjjjfryryjq,.  o@+oX        Xo+@o   ,qjprrrgjjjsryrpjjjj",
"ffggppppsffgfyppysjjq1-     O+#@+#@O     -10jjfyppyffffsypppffff",
"ryrrgjjjsryryjjjjyrrpjj02;&O        o&;20jjprryjjjjyryrsjjjgrrry",
"yyyrfjjjsryypjjjjyyyrsjjjgrq75443457qrgjjjsryyyjjjjpyyrsjjjgyyyy",
"yyyrfjjjsyyrpjjjjyyyrfjgjsyppfjjjjssprfjgjfyyyyjjjjpryrsjjjgryyy",
"yyyyfjjjsryypjjjjyyyrfjjjsryyygjgjyryrfjjjfryryjjjjyyyysjjjgryyy"
};
