/* XPM */
static char *ground1695809311[] = {
/* columns rows colors chars-per-pixel */
"64 64 213 2 ",
"   c black",
".  c #000D00",
"X  c #001300",
"o  c #001B00",
"O  c #002300",
"+  c #002C00",
"@  c #0D240C",
"#  c #003300",
"$  c #003B00",
"%  c #0E380C",
"&  c #122711",
"*  c #1B2B1A",
"=  c #163C14",
"-  c #1F371E",
";  c #243324",
":  c #293728",
">  c #2D3B2C",
",  c #323E31",
"<  c #004300",
"1  c #0C4607",
"2  c #014B00",
"3  c #0A4B01",
"4  c #12450F",
"5  c #035300",
"6  c #0B5401",
"7  c #005B00",
"8  c #0C5B02",
"9  c #12540D",
"0  c #184716",
"q  c #1C451A",
"w  c #1A5916",
"e  c #006300",
"r  c #0D6403",
"t  c #006B00",
"y  c #0E6C02",
"u  c #126B0A",
"i  c #017300",
"p  c #0F7601",
"a  c #007D00",
"s  c #0F7900",
"d  c #107604",
"f  c #117C03",
"g  c #14730D",
"h  c #16780E",
"j  c #1B6817",
"k  c #1B7216",
"l  c #1C7716",
"z  c #197B12",
"x  c #21661E",
"c  c #22701E",
"v  c #284827",
"b  c #2B502A",
"n  c #384638",
"m  c #3C4C3C",
"M  c #345433",
"N  c #3B533A",
"B  c #3D593C",
"V  c #30722E",
"C  c #3F7A3D",
"Z  c #434D43",
"A  c #435443",
"S  c #445C44",
"D  c #4B554B",
"F  c #4D5D4D",
"G  c #525C52",
"H  c #466045",
"J  c #4C644C",
"K  c #546553",
"L  c #566A55",
"P  c #596758",
"I  c #5B6D5A",
"U  c #5D725D",
"Y  c #60755F",
"T  c #626F61",
"R  c #637363",
"E  c #657865",
"W  c #6C766C",
"Q  c #6C7C6C",
"!  c #717671",
"~  c #727A72",
"^  c #098500",
"/  c #118302",
"(  c #128B03",
")  c #15840C",
"_  c #158C09",
"`  c #0F9400",
"'  c #149404",
"]  c #159D03",
"[  c #16920B",
"{  c #18930E",
"}  c #179D09",
"|  c #1A9D0E",
" . c #1C9413",
".. c #1B9C12",
"X. c #1F9218",
"o. c #20861B",
"O. c #209F17",
"+. c #219419",
"@. c #219C19",
"#. c #08A700",
"$. c #00AA00",
"%. c #15A403",
"&. c #16AC02",
"*. c #19A30C",
"=. c #18AC09",
"-. c #00BC00",
";. c #0EBF00",
":. c #17B202",
">. c #18B405",
",. c #14BE00",
"<. c #19BD04",
"1. c #19B508",
"2. c #1FA515",
"3. c #1DAC12",
"4. c #1EB412",
"5. c #20A616",
"6. c #22A51A",
"7. c #22B417",
"8. c #21B916",
"9. c #23B31A",
"0. c #30902B",
"q. c #399536",
"w. c #31AF2B",
"e. c #2BB323",
"r. c #2EBC26",
"t. c #34B42D",
"y. c #30BC28",
"u. c #36B430",
"i. c #3AB334",
"p. c #0DC000",
"a. c #12C000",
"s. c #19C104",
"d. c #1BCA04",
"f. c #1BC208",
"g. c #1FC111",
"h. c #27C01D",
"j. c #479B44",
"k. c #51944F",
"l. c #588657",
"z. c #55A552",
"x. c #5AA757",
"c. c #5CA95A",
"v. c #70806F",
"b. c #6C946B",
"n. c #748473",
"m. c #7D8C7D",
"M. c #799D78",
"N. c #67A665",
"B. c #66AE63",
"V. c #71B46F",
"C. c #7AAC79",
"Z. c #75B773",
"A. c #7DBD7B",
"S. c #808180",
"D. c #859285",
"F. c #899689",
"G. c #8E9B8E",
"H. c #939293",
"J. c #929D91",
"K. c #85A984",
"L. c #85B384",
"P. c #8ABA88",
"I. c #90BC8F",
"U. c #9AA49A",
"Y. c #9BA69B",
"T. c #97B897",
"R. c #A5A5A5",
"E. c #A3ACA3",
"W. c #A7B1A7",
"Q. c #ADB6AD",
"!. c #AEB8AE",
"~. c #B0B8AF",
"^. c #B3BCB3",
"/. c #B8BBB8",
"(. c #8AC588",
"). c #90CA8F",
"_. c #98C697",
"`. c #94CC92",
"'. c #99D398",
"]. c #9DD29C",
"[. c #A0D49F",
"{. c #A0D89F",
"}. c #A8C6A8",
"|. c #A3D6A2",
" X c #A7D9A6",
".X c #ABDBAA",
"XX c #B7C1B7",
"oX c #B3CFB2",
"OX c #BBC2BB",
"+X c #BFC9BF",
"@X c #B1E0AF",
"#X c #C0C5BF",
"$X c #C4C4C4",
"%X c #C5CBC5",
"&X c #CACDCA",
"*X c #CDD3CC",
"=X c #D2D4D2",
"-X c #D5DAD5",
";X c #D8DDD7",
":X c #DBDDDB",
">X c #CFE5CF",
",X c #DDE1DD",
"<X c #E0E2DF",
"1X c #E4E5E4",
"2X c #E7E8E7",
"3X c #EAE7EA",
"4X c #ECECEC",
"5X c #EFF0EF",
"6X c #F0F1EF",
"7X c #F3F3F3",
"8X c #F7F8F7",
"9X c #F8F6F8",
"0X c #FAFAFA",
/* pixels */
"0X2X9X1X9X2X8X4X8X4X7X4X7X7X4X8X2X9X3X9X2X9X1X0X1X0X1X0X2X8X1X8X4X7X4X5X5X4X7X4X8X2X8X2X0X2X9X1X9X1X0X2X8X2X8X2X8X4X7X4X4X7X4X8X",
"2X9X1X8X2X9X2X8X2X7X4X7X6X4X7X4X7X4X7X2X8X2X9X1X9X2X8X2X8X4X8X2X7X4X7X5X4X7X2X7X3X7X2X7X3X7X1X0X1X8X1X8X2X8X2X7X2X6X5X5X7X4X7X2X",
"0X1X9X2X9X2X8X2X9X4X7X4X6X7X4X7X2X8X2X9X2X8X2X7X1X8X1X8X1X8X2X7X4X7X4X7X7X7X9X8X9X5X0X7X0X7X0X4X0X9X0X7X0X5X9X5X9X7X7X6X7X7X4X8X",
"1X9X2X8X2X8X2X7X2X6X2X5X4X4X6X2X7X2X8X4X0X5X0X7X0X8X0X7X0X8X0X5X7X4X4X1X1X,X=X*X&X&X#XOX!.W.E.Y.U.J.G.D.D.n.n.Q Q E R R L v.2X4X",
"0X4X8X2X8X2X9X5X9X9X8X8X9X9X7X8X6X9X2X2X:X:X*X%XXX^.W.Y.G.m.m.v.Y J B M b 0 $ $ + + O o o o X X . X X X o o o o o o O + O 0 3X8X",
"1X8X3X8X4X9X4X:X=X&X/.E.R.H.S.! P G n , O o                       . X o o @ * * * ; : > > , n n m Z Z Z Z D D D D G A 0 $ B 2X4X",
"8X2X8X2X*X.X@X|.].(.(.(.P.A.Z.V.B.B.c.c.z.x.z.x.z.c.z.c.x.c.c.B.B.V.V.Z.A.A.(.(.`.).).).'.).'.`.].].|.|..X X.X.X.X.X>XW O M 3X7X",
"2X8X4X9XoX-.$.$.#.%.*.*.3.5.5.2.6.6.6.6.2.6.O.6...6.@.@...@.X.X. . .{ { _ _ ( ^ ^ ^ ^ ^ a a a i i t t t e e 7 7 7 e {.~ o B 2X4X",
"7X4X7X4XoX8.3.3.*.' ( / s y r 8 8 2 2 < $ $ $ $ $ $ $ $ $ $ $ $ < < 2 < 2 3 3 6 6 6 8 8 8 r r u u u u g g z h ) x +  X~ o N 2X8X",
"4X7X4X4X}.4.s.f.d.d.d.d.d.d.d.f.s.s.f.f.<.<.<.f.<.<.<.<.<.<.<.<.>.>.:.=.=.&.&.%.%.} ] } ' ' ' _ ( _ / / f / d ( O.+ |.! o B 1X5X",
"7X4X7X3XT.h.s.f.<.f.<.s.s.s.s.s.s.s.s.s.s.s.s.s.<.f.s.s.f.f.s.s.s.s.f.s.s.s.s.s.<.<.,.<.<.<.<.<.<.<.<.<.<.<.<.p X.+ {.~ o B 4X7X",
"5X6X5X3XI.h.a.f.f.f.s.s.s.s.s.s.s.s.s.s.f.s.s.s.s.f.s.s.s.s.s.s.s.s.s.s.s.s.s.s.s.f.f.f.s.s.s.s.s.s.s.s.f.f.s./ X.+ ].W o B 4X6X",
"5X5X6X1XK.y.s.f.s.s.s.s.s.s.s.s.s.s.s.s.s.s.s.s.s.s.s.s.s.s.s.s.s.s.s.s.s.s.s.s.s.s.s.s.s.s.s.s.s.s.s.s.s.s.s.f +.+ [.W o S 4X5X",
"7X4X7X<XK.r.p.f.f.s.s.s.s.s.s.s.s.s.s.s.s.s.s.s.s.<.s.s.s.s.s.s.s.s.s.s.s.s.s.s.s.s.s.s.s.s.s.s.s.s.s.s.s.s.s.f +.+ [.~ o S 4X7X",
"4X7X7X<XC.t.,.f.s.s.s.s.s.s.s.s.s.s.s.s.s.s.s.s.s.s.s.s.s.s.s.s.s.s.s.s.s.s.s.s.s.s.s.s.s.s.s.s.s.s.s.s.s.s.s.p X.+ _.E o J 4X5X",
"7X3X9X:XK.t.;.f.f.,.s.s.,.s.s.s.s.s.s.s.<.s.s.s.s.s.s.s.s.s.s.s.s.s.s.s.s.s.s.s.s.s.s.s.s.s.s.s.s.s.s.s.s.s.s.p X.+ _.W o J 4X5X",
"3X7X5X:XM.t.p.f.s.s.s.s.s.s.s.s.s.s.s.s.s.s.s.s.s.s.s.s.s.s.s.s.s.s.s.s.s.s.s.s.s.s.s.s.s.s.s.s.s.s.s.s.s.s.s.d  .# _.T X I 4X4X",
"7X4X9X=XM.i.p.f.<.s.s.s.s.s.s.s.s.s.s.s.s.s.s.s.s.s.s.s.s.s.s.s.s.s.s.s.s.s.s.s.s.s.s.s.s.s.s.s.s.s.s.s.s.s.s.f  .+ _.R X I 5X8X",
"3X7X5X=Xb.u.p.f.s.s.s.s.s.s.s.s.s.<.s.s.s.s.s.s.s.s.s.s.s.s.s.s.s.s.s.s.s.s.s.s.s.s.s.a.s.s.s.s.s.s.s.s.s.s.s.d  .# I.I . Q 7X2X",
"9X3X0X&Xb.i.p.f.s.s.s.s.s.s.s.s.s.s.s.s.s.s.s.s.s.s.s.s.s.s.<.s.s.s.<.s.s.s.s.s.s.s.s.s.s.<.s.s.s.<.s.s.s.s.d.d  .$ T.T X E 7X7X",
"2X9X5X&Xb.t.;.f.s.s.s.s.s.s.s.s.s.s.s.s.s.s.<.s.s.<.s.s.s.s.s.s.s.s.s.s.s.s.s.s.s.s.s.s.s.s.s.s.s.s.s.s.s.s.s.d X.# P.K   m.9X2X",
"9X2X0X$Xb.u.;.f.s.s.s.s.s.s.s.s.s.s.s.s.s.s.s.s.s.s.s.s.s.s.s.s.s.s.s.s.s.s.s.s.s.s.s.s.s.s.s.s.s.s.s.s.s.s.s.d  .$ I.K . n.8X7X",
"1X8X7X&Xl.u.;.f.s.s.s.s.<.s.s.s.s.s.s.s.s.s.s.s.s.s.s.s.s.s.s.s.<.s.s.s.s.s.s.s.s.s.s.s.s.s.s.<.s.s.s.s.s.s.d.d  .$ L.F   D.8X2X",
"9X1X0X#Xl.i.p.<.s.s.s.s.s.s.s.s.s.s.s.s.s.s.s.s.s.s.s.s.s.s.s.s.s.s.s.s.s.s.<.s.s.s.s.s.s.s.s.s.s.s.s.s.s.<.d.d ..$ P.H . m.8X7X",
"2X8X5X%Xl.w.;.f.,.s.s.s.s.s.s.s.s.s.s.s.s.s.<.s.s.s.s.s.s.s.s.s.s.s.s.s.s.s.s.s.s.s.s.s.s.s.s.s.s.s.s.s.s.s.d.s  .< K.S   Y.7X1X",
"0X2X0X#Xl.t.;.s.f.s.s.s.s.s.s.s.<.s.s.s.s.s.s.s.s.s.s.s.s.s.s.<.s.s.s.s.s.s.s.s.s.s.s.s.s.s.s.s.s.s.s.s.s.f.s.s  .2 L.S X D.8X7X",
"2X8X7X$XC w.a.f.s.s.,.f.s.s.s.s.s.s.s.s.s.s.s.s.s.s.s.s.s.s.s.s.s.s.s.s.s.s.s.s.s.s.s.s.s.s.s.s.s.s.s.s.s.s.d.s { 2 C.B   Y.9X4X",
"9X3X0X$XC t.a.f.s.s.s.f.s.s.s.s.s.s.s.s.s.s.s.s.s.s.s.s.s.s.s.s.s.s.s.s.a.s.<.s.s.<.s.s.s.s.s.s.s.s.s.s.s.s.d.s ..2 P.A X Y.8X7X",
"2X7X7X$XV t.a.s.s.<.s.s.s.s.s.<.s.s.s.<.s.s.s.s.s.s.s.s.s.<.s.s.s.s.s.s.s.s.s.s.s.s.s.s.s.s.<.s.s.s.s.s.s.s.d.s { 5 C.N   ^.0X3X",
"8X3X0X$Xc e.a.s.s.s.s.s.s.s.s.s.s.s.s.s.s.s.s.s.s.s.s.s.s.s.s.s.s.s.s.s.s.s.s.s.s.s.s.s.s.s.s.s.s.s.s.s.s.s.d./ { 7 C.m o ~.9X7X",
"1X7X7X$Xk e.<.s.s.s.s.s.s.s.s.s.s.s.s.s.s.s.s.s.s.s.a.s.s.s.s.s.s.s.s.s.s.s.s.s.s.s.s.s.s.s.s.s.s.s.s.s.s.s.d./ { e N.n X OX9X4X",
"8X2X0X$Xe 9.<.s.s.s.s.s.s.s.s.s.s.s.s.s.s.s.s.s.s.s.s.s.s.s.s.s.s.s.s.s.s.s.s.s.s.s.s.s.s.s.s.s.s.s.s.s.s.<.d./ [ t N.v O ^.8X5X",
"2X7X9X$Xe 9.s.s.s.<.s.s.s.s.s.s.s.s.s.s.s.s.s.s.s.s.s.s.s.s.s.s.,.f.s.s.s.s.s.s.s.s.s.s.s.s.s.s.s.s.<.s.s.s.d./ ' t k.v O %X8X2X",
"8X4X0X$X7 4.<.s.s.s.s.s.s.s.s.s.s.s.s.s.s.s.s.s.s.<.s.s.s.s.s.s.s.f.s.s.s.s.s.s.s.s.s.s.s.s.s.s.s.s.s.s.s.s.d./ [ i z.- + &X8X6X",
"4X5X8X$X7 9.>.s.s.s.s.s.s.s.s.s.s.s.s.<.s.s.s.s.s.s.s.s.s.s.s.s.s.s.s.s.s.s.s.s.s.<.s.s.s.s.s.s.s.s.s.s.s.s.d./ ( d j.= # =X8X4X",
"7X4X8X$X5 7.:.d.s.s.s.s.s.s.s.s.s.s.s.s.s.s.s.s.s.s.s.s.s.s.s.s.s.s.<.s.s.s.s.s.s.s.s.s.s.s.s.s.s.s.s.s.s.s.d.^ ( / j.% $ ;X8X4X",
"5X4X9X$X5 8.&.s.s.s.s.s.s.s.s.s.s.s.s.s.s.s.s.s.s.s.s.s.s.<.s.s.s.s.s.s.s.s.s.s.s.s.s.s.<.s.s.s.s.s.s.s.s.<.d.( ( ) q.# $ :X8X5X",
"4X5X8X&X2 8.&.s.s.s.s.s.s.s.s.s.s.s.s.s.s.s.s.s.s.s.s.s.s.s.s.s.s.s.s.s.s.s.s.<.s.s.s.s.s.s.s.s.s.s.s.s.s.s.d.( ( _ 0.# 4 :X9X4X",
"8X2X9X$X2 8.&.s.s.s.s.s.s.s.s.s.s.s.s.s.s.s.s.s.s.s.s.s.s.s.s.s.s.s.s.s.s.s.s.s.s.s.s.s.s.s.s.s.a.s.s.s.s.<.d.( / ( o.+ b ,X6X6X",
"4X5X8X&X2 4.%.s.s.s.s.s.s.s.s.s.s.s.s.s.<.s.s.s.s.s.s.s.s.s.s.s.s.s.s.s.s.s.s.s.s.s.s.s.s.s.s.s.s.s.s.s.s.s.d.( / ' ) O M 2X9X4X",
"8X2X9X&X$ 8.%.s.s.s.s.s.s.s.s.s.<.s.s.s.s.s.s.s.s.s.s.s.s.s.s.s.s.s.<.s.s.s.s.s.s.s.s.s.s.s.s.s.s.s.s.s.s.s.d.( / ] z O H 4X6X7X",
"2X7X7X&X$ 8.%.s.s.s.s.s.s.s.s.s.s.s.s.s.s.s.s.s.s.s.<.s.s.s.s.s.s.s.s.s.s.a.s.s.s.s.f.,.s.s.s.s.s.s.s.s.s.s.d.( / %.z o J 7X7X2X",
"9X3X0X%X$ 4.] s.s.s.s.s.s.s.s.s.s.s.s.s.s.<.s.s.s.s.s.s.s.s.s.s.s.s.s.s.s.s.s.s.s.s.f.s.s.s.s.s.s.s.s.s.s.s.d.( / &.z X U 5X4X8X",
"2X8X7X*X+ 4.] s.s.s.s.s.s.s.s.s.s.s.s.s.s.s.s.s.s.s.s.s.s.s.s.s.s.s.s.s.s.s.s.s.<.s.s.s.s.s.s.s.s.s.s.s.s.s.d.' / &.z . U 8X7X2X",
"9X1X0X%X+ 4.] <.s.s.s.s.s.s.s.s.s.s.s.s.s.s.s.s.s.s.s.s.s.s.s.s.s.s.s.s.s.<.s.s.s.s.s.s.s.s.s.s.s.s.s.s.s.s.d.( f :.k   n.7X4X7X",
"1X8X7X=X+ 3.] <.s.s.s.s.s.s.s.s.s.s.s.s.s.s.s.s.s.s.s.s.s.s.s.s.s.s.s.s.s.s.s.s.s.s.s.s.s.s.s.<.s.s.s.s.s.s.d.( ) <.k . v.8X7X2X",
"0X1X0X*XO 4.] <.s.s.s.s.s.s.<.s.s.s.s.s.s.a.s.s.s.s.s.s.s.s.s.s.s.s.s.s.s.s.s.s.s.s.s.s.s.s.s.s.s.s.s.s.s.s.d.( / <.j   G.8X4X8X",
"1X9X5X-XO *.] :.s.s.s.s.s.s.s.s.s.s.s.s.s.s.s.s.s.s.s.<.s.s.s.s.s.s.s.s.s.s.s.s.s.s.s.s.s.s.s.s.s.s.s.s.s.<.d.( f s.j   F.9X5X2X",
"0X1X0X=Xo *.] >.s.s.s.s.s.s.s.s.<.s.s.s.s.s.s.s.s.s.s.s.s.s.s.s.s.s.s.s.s.s.s.s.s.s.s.s.s.s.s.s.s.<.s.s.s.s.d.( f d.x   E.9X4X8X",
"1X8X5X,Xo %.} :.d.s.s.s.s.s.s.s.s.s.s.s.s.s.s.s.s.s.<.s.s.s.s.s.s.s.s.s.s.s.s.s.s.s.s.s.s.s.s.s.s.s.s.s.s.s.d./ f d.w X J.9X6X2X",
"0X1X0X=Xo %.} =.s.s.s.s.s.s.s.s.s.s.s.s.s.s.s.s.s.s.s.s.s.s.s.s.s.s.s.s.s.s.s.s.s.s.s.s.s.s.s.s.s.s.s.s.s.s.d./ f d.w   !.9X4X8X",
"2X7X5X,X* ` } &.d.f.s.s.s.s.s.<.s.s.s.s.s.s.s.s.s.s.s.s.s.s.<.s.s.s.s.<.s.s.s.s.s.s.s.s.s.s.s.s.s.s.s.s.s.<.d./ / d.q o E.9X5X2X",
"0X2X0X-X& ` } &.s.s.s.s.s.s.s.s.s.s.s.s.s.s.s.s.s.s.s.s.s.s.s.s.s.s.s.s.s.s.s.<.s.s.s.s.s.s.s.s.s.s.s.s.s.<.d./ / d.q . OX0X4X8X",
"1X8X5X,X- ^ *.%.d.<.s.s.s.s.<.s.s.<.s.s.s.s.s.s.s.s.s.s.s.s.s.s.s.s.s.s.s.s.s.d.s.s.d.s.s.s.s.s.s.s.s.s.s.s.d.d / d.0 O OX9X6X2X",
"8X2X8X,X* ^ } &.d.d.s.d.d.d.d.d.d.d.d.s.s.d.s.s.s.s.s.s.s.d.s.s.s.<.<.s.<.<.<.<.:.<.<.<.<.>.>.<.<.<.<.<.s.s.d.d ( <.0 o &X8X4X8X",
"4X7X5X1X: ^ } / %.%.%.] ] ' ' ' ' ' ' ' ( ( ( ( ^ / f ) f d d d d y y y y r 8 8 8 8 6 6 6 3 3 3 3 3 3 3 3 3 6 O ( <.= + %X8X5X4X",
"7X4X8X,X: i g...*.*.| | ..| | ..| ..| ......| ..| ..| ..| | | ..| *.*.*.1.=.=.=.1.=.1.>.>.>.>.1.>.<.>.&.&.:.:.:.f.1.% $ $X5X5X7X",
"5X7X6X2Xv < t t t 7 7 5 2 2 < $ $ $ # + + + + O O + + + + + # $ $ $ $ $ < 1 3 1 1 9 9 w 9 j j k k c l o.o.o.+.+.@.o.= q #X4X7X4X",
"5X4X7X1XF v N m A D F K K K K I K I L R I R L U K I J L H K S S M M q q 4 $ $ + $ O + o O X o                       O $ XX2X6X4X",
"5X5X5X5X*X=X%X%XOXOXOXXX/.^.^.^.^.^.Q.!.Q.Q.Q.!.Q.!.!.^.^.XXXX/.#X%X*X*X:X:X-X:X=X:X&X*XXX%XQ.^.E.^.Y.E.G.Y.D.F.m.m.~ m.#X1X8X4X",
"5X5X5X4X<X*X&X#XOX^.^.^.^.^.~.^.^.$XXX&XOX%X$X*X%X-X-X:X:X1X1X3X4X6X7X7X7X8X8X7X8X7X8X9X7X4X1X:X:X*X*X*X*X%X%XOXOXXXOX+X^.1X7X5X",
"5X5X7X5X7X8X8X9X9X9X8X9X8X9X9X9X9X9X9X9X9X9X8X9X8X8X9X8X7X7X6X7X7X6X4X5X4X6X6X4X5X4X4X4X5X7X7X4X6X5X6X7X5X5X2X4X4X4X4X2X5X5X5X5X",
"4X7X4X7X4X5X4X5X4X5X4X4X4X4X5X4X4X4X5X2X7X4X6X4X6X4X4X4X5X5X7X4X4X5X6X6X6X7X4X7X5X7X4X5X4X5X4X7X4X5X4X7X4X7X4X7X5X5X5X7X5X5X5X5X",
"9X2X8X2X8X2X7X4X7X5X7X5X5X7X5X7X4X7X4X8X2X8X2X8X2X8X2X8X4X7X3X7X4X7X4X6X6X4X7X4X7X2X8X4X7X4X8X2X8X3X8X3X7X4X7X4X7X4X5X5X5X5X5X6X"
};
