/* XPM */
static char *player1695809230[] = {
/* columns rows colors chars-per-pixel */
"64 64 73 1 ",
"  c black",
". c gray1",
"X c #040404",
"o c gray3",
"O c gray6",
"+ c #111111",
"@ c #131313",
"# c #161616",
"$ c #181818",
"% c gray12",
"& c #222222",
"* c #272727",
"= c gray16",
"- c #2F2F2F",
"; c #323232",
": c #373737",
"> c gray22",
", c gray24",
"< c #434343",
"1 c gray28",
"2 c #494949",
"3 c #4E4E4E",
"4 c #505050",
"5 c #555555",
"6 c #585858",
"7 c gray37",
"8 c gray38",
"9 c #656565",
"0 c #686868",
"q c gray42",
"w c gray44",
"e c #777777",
"r c gray47",
"t c gray49",
"y c #808080",
"u c gray53",
"i c gray54",
"p c #8D8D8D",
"a c #909090",
"s c gray59",
"d c #9A9A9A",
"f c #9F9F9F",
"g c #A2A2A2",
"h c #A5A5A5",
"j c gray67",
"k c #AEAEAE",
"l c gray70",
"z c #B6B6B6",
"x c gray73",
"c c #BCBCBC",
"v c #C1C1C1",
"b c #C5C5C5",
"n c #C8C8C8",
"m c #CBCBCB",
"M c gray81",
"N c #D2D2D2",
"B c LightGray",
"V c #D5D5D5",
"C c #D7D7D7",
"Z c #DAD9DA",
"A c #DDDDDD",
"S c #E1E1E1",
"D c #E4E4E4",
"F c gray91",
"G c gray93",
"H c #F0EFEF",
"J c gray95",
"K c #F3F3F3",
"L c #F4F4F4",
"P c #F8F8F8",
"I c #FBFBFB",
"U c gray99",
"Y c white",
/* pixels */
"YSPDPDPFPGJGJLGLFPDPDPAYGPNzi9>$+=2rsbSLYDLDYDYSYSYSPDPFPGJGGLFP",
"DPFPFLFLGJGGGGJGLFLFLGYAj8            -rbJLLFLDPDPFLFLFLGJGJJGLF",
"LGJGJGJGGGJJGJGJGJFJPDg*   %$#O++OO#$#   6xLLGJGJGJGJGJJJGGGGJGJ",
"LFJGJGJGJGJGGGGJGJJPh>  $#Xo$$X   +%# O$#  9ALJFLGJGJGJGJGJGJJGJ",
"DPFPFLGLGJGJJGJGJJG9  %O o$    =:#   +#  #$  jGPDPFPFPFLFJGGGGLF",
"YDPDPFLFLFJGGJGJJN$ $+  $  ;anDFJFZl0  $o  $O wAYSPDPDPFLGJJGJGP",
"SPDPFPFLFLFJJFJJx  $   % ojJYYYYYYYYYV0 OO  o% <VYSPFPFLFLGGJGJF",
"LFPGLFLGJGJJGJLh o#   $ 7DYYYPYYPYYPYYYz  +   % *VYDLFLGLGJGGJGJ",
"GJJJGJGJJGJGGPg +O   % ePYPPYYYYYYYYPPYYM  O X % $APGGGJJGJGJJJG",
"FLFLFLGLGJGGPj +O   $ 9YYYYYYYYPYYYYYYYPYn +X   $ -DJJGJGJGGGGJF",
"PDPFPFPFJGGPc XO   O -GYYYYYYPYYYYPYYYYYPYh $    % 3LFLGLGJJGJGL",
"SYDPDPFLFJLV% +    $ vYPYYPYYYYYYPYYYPYPYYY6 #    % rYDPFJGGJGJF",
"PDPFPFLFJJF4 $    # 8YPYYYYYYYYYPYYYPYYYYYYM #     $ lYDLFJGGJFL",
"FLGLFJGJGLi %     $ bYPYYPYPYYPYYYYPYYYPYYYY7 #    + ;ALGJGJJGJG",
"JJJHGJJGLb $     O ,PYPYPYYYPYYYPYPYPYPYYYPYz $     $ iPGJGJJGJG",
"LFLFLGJGG3 #     $ iYYYYYYYPYYYYYYYYYYYYPYYYS XX    o ONPFJGGJGL",
"SPDPFPDYj O o    $ xYPYYPYYYYPYPYYYYYYPYYPYYY4 +   X ; pGJGJGGLF",
"YDPDPFPD; rd $   # VYYYYYYYYYYYYPYYPYYYYYYYYYr #  XX n4 DGGJGJGL",
"SPDPFLLh  GA #  o  DYYYYYYYYYYPYYYYYYPYYYYYPYa $  + 3Yz aYFJJGLF",
"LGLGLGG4 dYG- O o =JYYYPYYPYYYYYYYYYYYYYYYYYYg %  % pYL:;SLGGJGL",
"JGJGGLn *GYY7 + o &JYYYYYYPYYYYYYYYYYYYPPYYPYf $  $ zYYh cLGGJGJ",
"DPFPFYi sYPYr $ o  SYPYYYYYYYYPYYPYYYPYYYYYYYp $  $ nYYF yLGJGJF",
"YSPDPS- AYPYa $  # NYYYPYYYYYYYYYYYPYYYPYYYPYe # X# NYYYw GJGJFP",
"SYDLJb 8YYYYf %  $ lYPYYPYYYYPYPYYYYYYYYYYYYP1 + X+ ZYLYc xPGGLF",
"PDPDYd hYPYYf %  $ yYYYYYYPYYYYYPYPYYYYPYYPYA +  XO ZYPYF dLGJGL",
"FLGJJ8 VYYYYd $  O -JYPYYYYYPYYYYYYYYYYYYYYYj $ XX+ VYYYY45LJGJG",
"GLGLS%=JYYPYi $   $ xYYYYPYYYYPYYPYYYYYYYYYP3 +  X$ nYYPYa DJGGG",
"PFLGN 9YYYYYw #   + 3PYYYYYYYYYYYYYYYPYYYPYv $    $ vYYPYc nLJGL",
"SYSYz aYPYYY6 +    $ kYPYYYYYYYYYYPYYPYYYYL, +    % hYYYYZ vPFLF",
"YSLJf jYPYYG* O    O  SYPYYYPYYYYYYYYYYYYYp %     $ yYYPYG aPJGL",
"DLDYi bYYYYV #X     # <JYPYYYYYPYPYYYYYPYk $      + 4YYYYL#iLGJF",
"JGJLe MYPYYk $       $ 4GYYPYYYYYYYYYPYYl +o      o  DYYYY40PJGJ",
"LGLJ0 ZYYYYe $        % ;MYYYYPYYPYPYYPa +O        $ vYPYY67PGGL",
"DPFP0 AYPYF$ o         $  uSYYYYYYYYLc1 $o         $ tYYYY78JGJF",
"YSPF6 DYPYl %           ++  0jnASNca,  $           o $FYYY92LJGL",
"SPDYw FYYP2 +            X$O         %+             $ jYPY79LGJF",
"PFJJw DYYk $               X$%#O +$$+               O =JYY67PJGJ",
"JJGPy AYA  o                   oOo                   $ yYY2tPJJG",
"FLFYg DF; #                                           $ hY&fPGJG",
"YDLJz y- #                                             + r kPJFL",
"APDYN   #                O#$$%$$$$%$$#o                X#  ALFLF",
"YDPFG2 #              +$$              $%+              + 4FJJGL",
"FLFJLy #            +$   $5tfjzcczjft5#   $#            # tPGGJG",
"GJJGPc $           %  -inFYYYYYYYYYYYYGna<  $O          $ vPGJGG",
"LFLFLF1 O         $ ;kJYYYJYPYYPYPYPYPYYYLv7  #        + 1JJGJGJ",
"SYDPDYk %        # tJYYPYb%FYPYYYYYPYrrYYYYYxX #       & zLGJGLF",
"YSYSPFG4 #      $ sYYPYYYe lYYPYYYPYD  FYYPYYS; #     # 6DLGGJFP",
"DPDPFLJn +O    $ rYYYYYYL, tYYYYYYYYb  nYPYYPYA  o X Oo vPFJJGJF",
"LFLGJGGLg $+  o  FYPYYYYDo 8YYYYYYPYj  lYPPYYPYh $  +# fPGGJGJGJ",
"LGJGJJJGLd  %o$ rYYYYYPYZ  1LYYYYYYYd  dYYYYYYYD o+%  fJJGJGGJGJ",
"DPDPFLGLGPz#  & jYLYYYPYN  >LYYYYPYYa  aYYYYYYYL<   =cJLFJGJJGJF",
"YSYDPFLFLFPSu-  kYPYYYYYV  ,LYPYYYYYa  sYPYYYPYJ: :pGJLFLGJGGJGP",
"SPDPFPFLGJFLLDd fYYYYYPYS  5YYYYYYPYh  hYPYYYYYS eSYFLDPFJGJJGJF",
"PFLFLFLFJGJGFYn 0YYYPYYYG= wYYYPYYYYz  cYYYYYPYx lYSLFLFLGGGGJGL",
"GJGJJJGJGJGJJGF:$JYYYYYYY6 dYYYYYYPYZ  ZYPYYYYYe DJJJJGJGJGJJJGG",
"GJGJGJGJGJGJHGPp vYPYYYYYf VYPYYYYYYP;:YYYYYYYD yPFLGJGJGJGJGGJG",
"PDPFLFLGJGJGGGJV 9YYYYPYYGzYYYYYYPYPYMMYPYYYYYi NJLFLFPFLGJGJJGL",
"SYDPFPFLFJGJJGJGr vYPYYYYYYYYYPYYYYYYYYYYYYPYM rGPDIFPFPFJGGJFLF",
"YSPFPFLGLFJGJJFYb $DYPYYYYPYYYYYYYPYYYPYYYPYS$ NYSPDPFKFLGJGGJFP",
"DPFPFLFJGJGJGGJFPd <DYYYYPYYPYYYYYYYYPYYYYYS> zYFLFPFLGKGJGJJGJG",
"JGJGJGJGJGGJGGGJGLy &vYYYYYYYYYYYYYYYYYYYYz  hPGJHJGJGJGJGGJGGGJ",
"LGLGJGJGJGJGJJGJGLJf  6zAGLLPPLPPPPPPPLSl3 $xLLFLFLFJGJGJGJGJJGJ",
"DPDPFPFLFJGJJGJGLFLJNw   O<12222433332$  #sDJLDPFPFPDPFLDKGJJGJF",
"YDPDPDPFLGJGGJFJFPDPGYMzr3o          :9acSYFPDYDPDPDYDPFLGJGGJGL"
};
